<?xml version="1.0" encoding="UTF-8"?>
<svg id="Layer_2" data-name="Layer 2" xmlns="http://www.w3.org/2000/svg" viewBox="0 0 168.64 262.53">
  <defs>
    <style>
      .cls-1 {
        stroke-width: 3.44px;
      }

      .cls-1, .cls-2 {
        fill: none;
        stroke-linecap: round;
        stroke-linejoin: round;
      }

      .cls-1, .cls-2, .cls-3, .cls-4 {
        stroke: #000;
      }

      .cls-2 {
        stroke-width: 2.57px;
      }

      .cls-3 {
        stroke-width: 7.71px;
      }

      .cls-3, .cls-4 {
        stroke-miterlimit: 10;
      }

      .cls-3, .cls-4, .cls-5 {
        fill: #fff;
      }

      .cls-4 {
        stroke-width: 5.62px;
      }

      .cls-6 {
      }
    </style>
  </defs>
  <g id="Layer_1-2" data-name="Layer 1">
    <g>
      <path class="cls-6" d="M19.42 167C12.94 167 10.03 170.98 10.03 175.02C10.03 177.93 10.98 180.25 13.78 182.44L17.99 185.77C20.37 187.67 21.14 188.44 21.14 190.11C21.14 192.07 20.9 192.48 19.42 192.48C18.17 192.48 17.64 191.77 17.64 189.27V186.13H10.03C10.33 195.09 14.37 199.07 20.19 199.07C26.13 199.07 28.86 194.44 28.86 190.76C28.86 187.49 28.09 185.35 25.42 183.22L21.85 180.31L22.03 179.89H27.67L28.21 175.08C28.74 170.51 24.82 167 19.42 167ZM19.95 178.76C18.35 177.4 17.75 176.51 17.75 175.26C17.75 173.89 18.23 173.54 19.3 173.54C21.02 173.54 21.08 174.25 20.78 176.15L20.43 178.41ZM36.46 176.39 34.62 175.97C36.34 172.35 37.59 167.54 37.89 163.02L38.3 156.91H30.46V198.48H38.3V181.91C38.3 174.61 39.14 174.19 41.09 174.19C42.64 174.19 43.17 175.02 43.17 177.69V198.48H51.01V176.39C51.01 170.92 48.99 167 44.12 167C38.9 167 37.47 172.23 36.46 176.39ZM57.01 156.31C53.92 156.31 52.32 157.98 52.32 161.06C52.32 164.15 53.92 165.82 57.01 165.82C60.1 165.82 61.58 164.15 61.58 161.06C61.58 157.98 60.1 156.31 57.01 156.31ZM53.09 167.6V198.48H60.81V167.6ZM69.07 176.39 67.23 175.91C67.82 174.19 69.84 168.37 70.31 163.02L70.85 156.91H63.01V198.48H69.66L69.6 197.83C69.19 193.49 67.76 190.46 66.93 188.68L68.77 188.15C69.07 189.93 69.48 192.24 70.02 193.97C70.97 197.05 72.45 199.07 75.07 199.07C80.11 199.07 82.96 194.32 82.96 183.04C82.96 171.75 80.77 167 75.66 167C70.97 167 69.72 172.76 69.07 176.39ZM73.05 173.89C74.77 173.89 75.01 174.19 75.01 177.22V188.86C75.01 191.89 74.77 192.18 73.05 192.18C71.21 192.18 70.97 191.89 70.97 188.86V177.22C70.97 174.19 71.21 173.89 73.05 173.89ZM93.54 167C87.06 167 84.15 170.98 84.15 175.02C84.15 177.93 85.1 180.25 87.89 182.44L92.11 185.77C94.49 187.67 95.26 188.44 95.26 190.11C95.26 192.07 95.02 192.48 93.54 192.48C92.29 192.48 91.75 191.77 91.75 189.27V186.13H84.15C84.45 195.09 88.49 199.07 94.31 199.07C100.25 199.07 102.98 194.44 102.98 190.76C102.98 187.49 102.21 185.35 99.53 183.22L95.97 180.31L96.15 179.89H101.79L102.33 175.08C102.86 170.51 98.94 167 93.54 167ZM94.07 178.76C92.47 177.4 91.87 176.51 91.87 175.26C91.87 173.89 92.35 173.54 93.42 173.54C95.14 173.54 95.2 174.25 94.9 176.15L94.55 178.41ZM110.58 176.39 108.74 175.97C110.46 172.35 111.71 167.54 112.01 163.02L112.42 156.91H104.58V198.48H112.42V181.91C112.42 174.61 113.25 174.19 115.21 174.19C116.76 174.19 117.29 175.02 117.29 177.69V198.48H125.13V176.39C125.13 170.92 123.11 167 118.24 167C113.02 167 111.59 172.23 110.58 176.39ZM131.13 156.31C128.04 156.31 126.44 157.98 126.44 161.06C126.44 164.15 128.04 165.82 131.13 165.82C134.22 165.82 135.7 164.15 135.7 161.06C135.7 157.98 134.22 156.31 131.13 156.31ZM127.21 167.6V198.48H134.93V167.6ZM143.19 176.39 141.35 175.91C141.94 174.19 143.96 168.37 144.43 163.02L144.97 156.91H137.13V198.48H143.78L143.72 197.83C143.31 193.49 141.88 190.46 141.05 188.68L142.89 188.15C143.19 189.93 143.6 192.24 144.14 193.97C145.09 197.05 146.57 199.07 149.18 199.07C154.23 199.07 157.08 194.32 157.08 183.04C157.08 171.75 154.89 167 149.78 167C145.09 167 143.84 172.76 143.19 176.39ZM147.17 173.89C148.89 173.89 149.13 174.19 149.13 177.22V188.86C149.13 191.89 148.89 192.18 147.17 192.18C145.32 192.18 145.09 191.89 145.09 188.86V177.22C145.09 174.19 145.32 173.89 147.17 173.89Z"/>
      <path class="cls-6" d="M32.56 219.17C26.08 219.17 23.17 223.15 23.17 227.19C23.17 230.1 24.12 232.42 26.92 234.61L31.13 237.94C33.51 239.84 34.28 240.61 34.28 242.28C34.28 244.24 34.04 244.65 32.56 244.65C31.31 244.65 30.78 243.94 30.78 241.44V238.3H23.17C23.47 247.26 27.51 251.24 33.33 251.24C39.27 251.24 42 246.61 42 242.93C42 239.66 41.23 237.52 38.56 235.39L34.99 232.48L35.17 232.06H40.81L41.35 227.25C41.88 222.68 37.96 219.17 32.56 219.17ZM33.09 230.93C31.49 229.57 30.89 228.68 30.89 227.43C30.89 226.06 31.37 225.71 32.44 225.71C34.16 225.71 34.22 226.42 33.92 228.32L33.57 230.58ZM49.6 228.56 47.76 228.14C49.48 224.52 50.73 219.71 51.03 215.19L51.44 209.08H43.6V250.65H51.44V234.08C51.44 226.78 52.28 226.36 54.23 226.36C55.78 226.36 56.31 227.19 56.31 229.86V250.65H64.15V228.56C64.15 223.09 62.13 219.17 57.26 219.17C52.04 219.17 50.61 224.4 49.6 228.56ZM77.87 246.14C78.41 244.41 78.88 242.1 79.12 240.32L81.02 240.55C80.37 242.34 79.54 244.47 78.53 249.22L78.23 250.65H84.88V233.61C84.88 225.29 82.03 219.17 74.55 219.17C73.42 219.17 72.35 219.23 71.16 219.35L66.59 219.83V227.78L75.56 227.01C76.92 226.89 77.16 227.43 77.16 230.28V230.75H76.09C68.67 230.75 65.64 233.78 65.64 241.03C65.64 248.22 68.9 251.24 72.23 251.24C75.38 251.24 76.92 249.22 77.87 246.14ZM77.16 234.91V236.81C77.16 243.88 76.51 244.53 74.84 244.53C73.24 244.53 73 244.24 73 241.21V238.24C73 235.21 73.36 234.91 75.62 234.91ZM93.14 229.03 91.29 228.5C92.66 225.65 93.67 223.09 94.09 220.18L94.14 219.77H86.9V250.65H94.74V234.08C94.74 227.73 94.98 226.72 97.35 227.07L102.7 227.84V219.77L101.15 219.41C100.56 219.29 100.02 219.23 99.55 219.23C95.1 219.23 93.49 225.53 93.14 229.03ZM112.97 219.17C106.38 219.17 102.88 223.92 102.88 235.21C102.88 246.49 106.56 251.24 113.21 251.24C119.56 251.24 123.13 246.97 122.41 239.54L122.12 236.4H114.34L115.05 241.09C115.41 243.29 114.99 244.35 113.03 244.35C111.25 244.35 110.83 244.06 110.83 241.03V234.32H122.06L122.53 231.41C123.66 224.34 119.03 219.17 112.97 219.17ZM115.05 229.39 114.87 230.93H110.83V229.39C110.83 226.72 111.19 226.06 113.21 226.06C114.93 226.06 115.41 226.54 115.05 229.39ZM143.97 219.77H135.96L133.16 227.19C132.57 228.85 132.04 230.93 131.62 233.01L129.78 232.65C130.25 230.93 131.44 228.79 131.74 220.78L132.15 209.08H124.32V250.65H132.15V236.16H134.95C136.97 236.16 137.86 236.52 137.26 239.48L135.01 250.65H143.14L143.91 243.94C144.39 239.84 143.5 236.46 140.47 234.56C139.82 234.14 139.04 233.96 138.21 233.96C137.26 233.96 136.19 234.2 135.01 234.56L134.59 232.71C137.38 231.76 139.52 229.63 141 226.36Z"/>
      <g>
        <rect class="cls-4" x="2.81" y="2.81" width="77.54" height="89.89"/>
        <g>
          <g>
            <path class="cls-5" d="M68.82,36.69c.57,17.91-31.23,44.15-48.85,39.74h0c-6.19-1.59-10.77-7.2-10.77-13.87s4.66-12.38,10.94-13.91c3.55-1.28,11.29-4.89,13.6-12.53,1.35-8.42,8.68-14.85,17.5-14.85,9.79,0,17.28,5.66,17.59,15.42Z"/>
            <path d="M73.05,36.56c1.08,17.99-19.97,34.54-35.16,40.28-9.81,3.72-20.8,4.59-27.34-4.27-4.31-5.8-4.08-14.33.57-19.8,2.01-2.63,5.89-4.85,8.56-5.34,5.63-1.93,11.24-5.71,13.11-11.59,1.33-8.56,9.77-16.05,19.07-15.91,10.55-.46,20.25,5.33,21.19,16.62h0ZM64.58,36.83c1.23-13.14-14.66-18.27-24-10.79-3.16,2.5-5.36,6.24-5.9,10.24-.46,1.68-1.22,3.29-2.19,4.73-2.84,4.2-7.29,7.06-11.93,8.86-2.83.73-5.39,2.42-7.13,4.73-3.48,4.45-3.32,11.22.36,15.43,9.02,10.36,25.9-.05,34.85-8.19,3.97-3.65,7.62-7.66,10.49-11.99,2.56-3.96,5.05-8.51,5.44-13.03h0Z"/>
          </g>
          <path class="cls-2" d="M28.04,49.12s-5.01-11.89,4.2-19.35,23.9-1.29,23.9-1.29c0,0-20.45,6.6-8.93,31.72"/>
        </g>
        <rect class="cls-3" x="58.38" y="26.08" width="106.41" height="123.36"/>
        <g>
          <g>
            <path class="cls-5" d="M152.3,69.71c.77,23.94-41.75,59.03-65.32,53.13h0c-8.28-2.13-14.4-9.62-14.4-18.54s6.23-16.55,14.62-18.6c4.75-1.72,15.09-6.54,18.18-16.75,1.81-11.26,11.6-19.85,23.4-19.85,13.1,0,23.1,7.57,23.52,20.61Z"/>
            <path d="M157.97,69.53c1.56,23.9-26.81,46.29-47.01,53.84-7.82,2.87-16.33,4.86-24.74,2.59,0,0,.78.1.78.1,0,0-.52-.02-.52-.02-9.65-2.52-16.66-12.01-16.2-21.87.17-9.49,7.3-18.19,16.53-20.16,4.82-1.61,11.32-5.27,14.65-10.12,1.09-1.37,2.33-4.14,2.66-5.15,1.05-5.93,4.22-11.42,8.83-15.27,8.19-7.13,20.49-7.7,30.42-3.92,8.19,3,14.05,11.28,14.61,19.97h0ZM146.64,69.89c1.58-17.68-19.59-24.38-32.08-14.42-4.22,3.35-7.17,8.35-7.88,13.69-.61,2.25-1.63,4.4-2.93,6.33-3.8,5.62-9.74,9.44-15.95,11.85-7.53,1.83-13.25,9.13-12.89,16.86.07,7.39,5.75,14.12,12.88,15.53,0,0-.8-.1-.8-.1,6.94,1.41,14.3-.72,20.67-3.91,15.77-7.89,36.6-27.91,38.99-45.83h0Z"/>
          </g>
          <path class="cls-1" d="M97.78,86.33s-6.7-15.9,5.62-25.88c12.32-9.98,31.96-1.73,31.96-1.73,0,0-27.34,8.83-11.94,42.41"/>
        </g>
      </g>
    </g>
  </g>
</svg>